<?xml version="1.0" encoding="utf-8"?>
<!-- Generator: Adobe Illustrator 16.0.0, SVG Export Plug-In . SVG Version: 6.00 Build 0)  -->
<svg version="1.2" baseProfile="tiny" id="Layer_1" xmlns="http://www.w3.org/2000/svg" xmlns:xlink="http://www.w3.org/1999/xlink"
	 x="0px" y="0px" width="59.677px" height="56.452px" viewBox="0 0 59.677 56.452" xml:space="preserve">
<g>
	<path fill="#FFFFFF" d="M29.838,46.708c10.208,0,18.482-8.275,18.482-18.482c0-10.208-8.274-18.482-18.482-18.482
		c-10.207,0-18.481,8.273-18.481,18.482C11.357,38.433,19.631,46.708,29.838,46.708z M29.72,15.534c1.698,0,2.854,1.292,2.854,2.957
		c0,1.766-1.257,2.991-2.854,2.991c-1.563,0-2.821-1.225-2.821-2.991C26.899,16.759,28.157,15.534,29.72,15.534z M25.235,39.49
		c2.005,0,2.175-0.305,2.175-2.82v-7.781c0-2.514-0.136-2.686-2.175-2.686v-1.357c2.072-0.135,4.281-0.68,6.626-1.666l0.577,0.307
		v13.219c0,2.48,0.204,2.785,2.006,2.785v1.428h-9.209V39.49z"/>
</g>
</svg>
