<?xml version="1.0" encoding="utf-8"?>
<!-- Generator: Adobe Illustrator 16.0.0, SVG Export Plug-In . SVG Version: 6.00 Build 0)  -->
<!DOCTYPE svg PUBLIC "-//W3C//DTD SVG 1.1//EN" "http://www.w3.org/Graphics/SVG/1.1/DTD/svg11.dtd">
<svg version="1.1" id="Layer_1" xmlns="http://www.w3.org/2000/svg" xmlns:xlink="http://www.w3.org/1999/xlink" x="0px" y="0px"
	 width="41.667px" height="50.667px" viewBox="29.167 24.833 41.667 50.667" enable-background="new 29.167 24.833 41.667 50.667"
	 xml:space="preserve">
<g transform="scale(0.078125,0.078125)">
	<path fill="#3E3E3E" d="M801.15,601.319c-14.288,0-29.288,7.138-45.062,21.394l-43.225,39.15V423.35
		c0-14.863-2.462-26.538-7.287-35.05c-5.163-8.494-10.038-15.175-14.575-20.019c-4.862-4.562-11.525-9.413-20.013-14.569
		c-8.513-4.85-18.837-7.288-30.975-7.288s-22.463,2.438-30.95,7.288c-8.487,5.156-15.162,10.006-20.013,14.569
		c-4.562,4.844-9.412,11.525-14.575,20.019c-4.85,8.513-7.287,20.188-7.287,35.05v242.137l-23.2-24.106
		c-9.412-10.031-17.763-17.919-25.037-23.688c-6.975-5.762-13.65-10.006-20.025-12.731c-6.075-2.438-13.675-3.644-22.775-3.644
		c-9.087,0-16.688,1.206-22.75,3.644c-6.075,2.431-12.15,6.075-18.2,10.925c-6.375,5.162-12.137,10.925-17.3,17.294
		c-4.85,6.081-8.487,12.131-10.925,18.219c-2.438,6.075-3.65,13.938-3.65,23.637v4.575c0,12.737,6.688,25.963,20.025,39.612
		L462.5,759.7c39.15,40.375,78.588,79.5,118.35,117.425l59.163,56.45l59.15-56.45c39.75-37.925,79.213-77.05,118.338-117.425
		l36.9-37.775c14.862-15.487,22.287-30.35,22.287-44.575c0-14.275-3.612-26.875-10.9-37.8c-7.625-10.612-16.688-19.706-27.35-27.306
		C827.537,604.963,815.088,601.319,801.15,601.319"/>
</g>
</svg>
