<?xml version="1.0" encoding="utf-8"?>
<!-- Generator: Adobe Illustrator 16.0.0, SVG Export Plug-In . SVG Version: 6.00 Build 0)  -->
<svg version="1.2" baseProfile="tiny" id="Layer_1" xmlns="http://www.w3.org/2000/svg" xmlns:xlink="http://www.w3.org/1999/xlink"
	 x="0px" y="0px" width="59.677px" height="56.452px" viewBox="0 0 59.677 56.452" xml:space="preserve">
<path fill="#FFFFFF" d="M48.089,14.351c0,2.071-1.679,3.75-3.75,3.75h-29c-2.071,0-3.75-1.679-3.75-3.75l0,0
	c0-2.071,1.679-3.75,3.75-3.75h29C46.41,10.601,48.089,12.279,48.089,14.351L48.089,14.351z"/>
<path fill="#FFFFFF" d="M48.089,28.225c0,2.072-1.679,3.75-3.75,3.75h-29c-2.071,0-3.75-1.678-3.75-3.75l0,0
	c0-2.07,1.679-3.75,3.75-3.75h29C46.41,24.475,48.089,26.155,48.089,28.225L48.089,28.225z"/>
<path fill="#FFFFFF" d="M48.089,42.1c0,2.072-1.679,3.75-3.75,3.75h-29c-2.071,0-3.75-1.678-3.75-3.75l0,0
	c0-2.07,1.679-3.75,3.75-3.75h29C46.41,38.35,48.089,40.03,48.089,42.1L48.089,42.1z"/>
</svg>
