<?xml version="1.0" encoding="utf-8"?>
<!-- Generator: Adobe Illustrator 16.0.0, SVG Export Plug-In . SVG Version: 6.00 Build 0)  -->
<svg version="1.2" baseProfile="tiny" id="Calque_1"
	 xmlns="http://www.w3.org/2000/svg" xmlns:xlink="http://www.w3.org/1999/xlink" x="0px" y="0px" width="100px" height="100px"
	 viewBox="0 0 100 100" xml:space="preserve">
<path fill="#3E3E3E" d="M96.525,82.869L69.166,59.155c2.98-5.22,4.691-11.256,4.691-17.697c0-19.744-16.004-35.749-35.749-35.749
	c-19.746,0-35.751,16.005-35.751,35.749c0,19.745,16.005,35.75,35.751,35.751c8.5,0,16.302-2.972,22.437-7.926l-0.128,0.154
	L87.684,93.07c2.493,2.162,6.303,1.89,8.465-0.604l0.98-1.132C99.291,88.84,99.02,85.031,96.525,82.869z M38.563,67.583
	c-14.429,0-26.125-11.696-26.126-26.126c0-14.428,11.696-26.124,26.126-26.124c14.428,0,26.125,11.696,26.125,26.124
	C64.688,55.887,52.991,67.583,38.563,67.583z"/>
</svg>
