<?xml version="1.0" encoding="utf-8"?>
<!-- Generator: Adobe Illustrator 16.0.0, SVG Export Plug-In . SVG Version: 6.00 Build 0)  -->
<svg version="1.2" baseProfile="tiny" id="Layer_1" xmlns="http://www.w3.org/2000/svg" xmlns:xlink="http://www.w3.org/1999/xlink"
	 x="0px" y="0px" width="59.677px" height="56.452px" viewBox="0 0 59.677 56.452" xml:space="preserve">
<path fill="#FFFFFF" d="M44.296,28.227c0-2.459,1.843-4.484,4.222-4.779c-2.097-5.048,0,0-2.097-5.048
	c-1.89,1.471-4.622,1.341-6.359-0.396c-1.738-1.737-1.867-4.47-0.396-6.36c-5.049-2.096,0,0-5.049-2.096
	c-0.295,2.379-2.32,4.222-4.778,4.222s-4.483-1.843-4.778-4.222c-5.049,2.096,0,0-5.049,2.096c1.471,1.891,1.341,4.623-0.396,6.36
	s-4.47,1.867-6.359,0.396c-2.097,5.048,0,0-2.097,5.048c2.38,0.295,4.222,2.32,4.222,4.779s-1.842,4.482-4.222,4.777
	c2.097,5.049,0,0,2.097,5.049c1.891-1.471,4.622-1.342,6.359,0.396c1.738,1.738,1.867,4.469,0.396,6.359
	c5.049,2.096,0,0,5.049,2.096c0.296-2.379,2.32-4.221,4.778-4.221s4.482,1.842,4.778,4.221c5.049-2.096,0,0,5.049-2.096
	c-1.471-1.891-1.342-4.623,0.396-6.359c1.737-1.738,4.47-1.867,6.359-0.396c2.097-5.049,0,0,2.097-5.049
	C46.138,32.709,44.296,30.686,44.296,28.227z M29.726,35.772c-4.23,0-7.66-3.428-7.66-7.658s3.43-7.66,7.66-7.66
	c4.229,0,7.658,3.429,7.658,7.66S33.956,35.772,29.726,35.772z"/>
</svg>
